<?xml version="1.0" standalone="no"?>
<!DOCTYPE svg PUBLIC "-//W3C//DTD SVG 20010904//EN"
 "http://www.w3.org/TR/2001/REC-SVG-20010904/DTD/svg10.dtd">
<svg version="1.0" xmlns="http://www.w3.org/2000/svg"
 width="260.000000pt" height="260.000000pt" viewBox="0 0 260.000000 260.000000"
 preserveAspectRatio="xMidYMid meet">
<metadata>
Created by potrace 1.14, written by Peter Selinger 2001-2017
</metadata>
<g transform="translate(0.000000,260.000000) scale(0.100000,-0.100000)"
fill="#000000" stroke="none">
<path d="M10 2594 c0 -3 50 -144 111 -312 61 -169 126 -347 144 -397 18 -49
62 -171 98 -270 36 -99 76 -211 90 -250 14 -38 41 -113 60 -165 19 -52 49
-135 67 -185 17 -49 35 -99 40 -110 5 -11 32 -85 61 -165 29 -80 53 -147 55
-148 1 -2 74 33 161 77 l158 82 57 182 c31 100 98 313 148 472 51 160 105 333
121 385 31 99 56 179 107 340 17 52 56 175 86 274 31 98 59 182 62 187 3 5
-341 9 -810 9 -449 0 -816 -3 -816 -6z"/>
<path d="M1875 2588 c-2 -7 -34 -107 -70 -223 -147 -467 -168 -534 -197 -625
-16 -52 -33 -106 -38 -120 -4 -14 -31 -97 -58 -185 -28 -88 -73 -232 -101
-320 -77 -246 -85 -227 60 -152 130 67 477 245 884 453 l240 123 3 530 2 531
-360 0 c-280 0 -362 -3 -365 -12z"/>
<path d="M0 1066 l0 -857 257 132 c142 72 261 135 265 138 3 3 -9 47 -27 96
-19 50 -136 371 -260 715 -125 344 -229 627 -231 629 -2 2 -4 -381 -4 -853z"/>
<path d="M2575 1271 c-6 -4 -167 -88 -360 -186 -192 -98 -395 -201 -450 -230
-55 -29 -217 -112 -360 -185 -320 -164 -309 -157 -259 -165 22 -4 71 -14 109
-22 39 -7 86 -16 105 -19 19 -3 67 -11 105 -19 39 -7 86 -16 105 -19 19 -3 46
-9 60 -12 14 -3 36 -7 50 -10 14 -2 59 -11 100 -19 41 -8 91 -17 110 -20 19
-3 105 -19 190 -35 85 -16 166 -32 180 -34 14 -3 34 -7 45 -9 11 -2 36 -7 55
-11 19 -3 46 -8 60 -11 14 -3 52 -10 85 -15 33 -6 68 -13 78 -16 16 -5 17 24
17 520 0 289 -4 526 -8 526 -4 0 -12 -4 -17 -9z"/>
<path d="M660 289 c-52 -28 -185 -96 -295 -152 -110 -56 -213 -109 -230 -119
-29 -17 14 -18 1194 -18 673 0 1222 2 1220 4 -2 2 -17 6 -34 9 -31 5 -117 21
-440 83 -104 20 -203 38 -220 41 -16 2 -73 12 -125 23 -86 17 -182 35 -250 46
-14 3 -48 9 -76 15 -28 5 -64 12 -80 15 -16 2 -40 7 -54 9 -14 3 -36 7 -50 10
-116 22 -308 59 -367 71 -40 7 -78 14 -85 14 -7 -1 -56 -23 -108 -51z"/>
</g>
</svg>
